<svg viewBox="0 0 110 36" fill="none" xmlns="http://www.w3.org/2000/svg"><title>Front logo</title><path d="M56.494 18.127v-2.822h-3.9v15.983h2.63c.701 0 1.27-.569 1.27-1.27V23.74c0-3.044.983-5.17 3.458-5.17h2.505v-3.267h-1.872c-2.06.002-3.297.794-4.09 2.824zM71.495 15.05c-4.885 0-8.373 3.49-8.373 8.246s3.49 8.245 8.373 8.245c4.852 0 8.34-3.489 8.34-8.245 0-4.756-3.488-8.245-8.34-8.245zm0 13.13c-2.664 0-4.44-1.998-4.44-4.884s1.776-4.884 4.44-4.884c2.632 0 4.408 1.998 4.408 4.884s-1.776 4.884-4.408 4.884zM91.094 15.05c-2.283 0-4.09.984-4.98 2.728v-2.473h-3.9v15.983h2.63c.702 0 1.27-.568 1.27-1.27v-7.45c0-2.347 1.523-4.06 3.71-4.06 1.999 0 3.33 1.523 3.33 3.711v9.07h2.632c.7 0 1.27-.568 1.27-1.269v-8.626c0-3.743-2.347-6.343-5.962-6.343zM109.932 17.302v-1.997h-4.44v-4.82h-3.9v3.773c0 .76-.381 1.046-1.015 1.046h-2.125v3.267h3.14v7.135c0 3.553 2.284 5.582 5.772 5.582h2.568v-3.521h-2.125c-1.459 0-2.316-.824-2.316-2.442v-6.754h3.17a1.269 1.269 0 001.271-1.269zM36.96 13.116V31.29h2.916c.7 0 1.27-.57 1.27-1.27v-8.055h8.498v-3.616h-8.499v-4.535c0-.613.497-1.11 1.11-1.11h8.213c.701 0 1.27-.568 1.27-1.27V9.089H40.987a4.03 4.03 0 00-4.028 4.028zM.072 5.97C.072 2.673 2.754 0 6.062 0h19.21v8.496a2.99 2.99 0 01-2.995 2.985h-7.805a2.875 2.875 0 00-2.88 2.87v18.542a2.99 2.99 0 01-2.995 2.985H.072V5.97z" fill="#061B36"></path><ellipse cx="14.545" cy="14.423" rx="7.75" ry="7.776" transform="rotate(90 14.545 14.423)" fill="url(#front-logo-horizontal_svg__paint0_linear_662_2108)"></ellipse><ellipse opacity="0.5" cx="14.545" cy="14.423" rx="7.75" ry="7.776" transform="rotate(90 14.545 14.423)" fill="url(#front-logo-horizontal_svg__paint1_linear_662_2108)"></ellipse><defs><linearGradient id="front-logo-horizontal_svg__paint0_linear_662_2108" x1="8.735" y1="19.899" x2="20.509" y2="8.246" gradientUnits="userSpaceOnUse"><stop stop-color="#FF0057" stop-opacity="0.16"></stop><stop offset="0.861" stop-color="#FF0057"></stop></linearGradient><linearGradient id="front-logo-horizontal_svg__paint1_linear_662_2108" x1="8.735" y1="19.899" x2="20.509" y2="8.246" gradientUnits="userSpaceOnUse"><stop stop-color="#FF0057" stop-opacity="0.16"></stop><stop offset="0.861" stop-color="#FF0057"></stop></linearGradient></defs></svg>